# xmcd
#
# Track frame offsets: 
#        150
#        19820
#        33325
#        55937
#        71702
#        88692
#        105047
#        121390
#        137445
#        155222
#        171695
#        192320
#
# Disc length: 2817 seconds
#
# Revision: 7
# Processed by: cddbd v1.5.2PL0 Copyright (c) Steve Scherf et al.
# Submitted via: ExactAudioCopy v0.99pb4
#
DISCID=a40aff0c
DTITLE=Various Artist - Putumayo Presents...North African Groove
DYEAR=2005
DGENRE=Africa
TTITLE0=Jomed (Algeria and Cuba) - Montuno Noreño
TTITLE1=Samira Saeid (Morocco) - Aal Eah
TTITLE2=Amr Diab (Egypt) - Nour El Ain
TTITLE3=Faudel (Algeria) - Si Tu le Veux
TTITLE4=Rhany (Morocco and Tunisia) - Un Mot de Toi
TTITLE5=Amina (Tunisia) - Dis-Moi Pourquoi
TTITLE6=Cheb Jilani (Libya) - Bahebbak
TTITLE7=Hamid Baroudi (Algeria) - Sidi
TTITLE8=Khaled (Algeria) - Ya-Rayi
TTITLE9=Cheb Mami (Egypt) - Viens Habibi
TTITLE10=Mohamed Mounir (Egypt) - Hanina
TTITLE11=Eastenders feat. Shady Sheha (Germany and Egypt) - On the Ride
EXTD=YEAR: 2005
EXTT0=
EXTT1=
EXTT2=
EXTT3=
EXTT4=
EXTT5=
EXTT6=
EXTT7=
EXTT8=
EXTT9=
EXTT10=
EXTT11=
PLAYORDER=
